<?xml version="1.0"?>
<svg version="1.1" xmlns="http://www.w3.org/2000/svg" width="198" height="64" style="">
    <path fill="#02010a"
        d="M16.353515625,35.6953125q0-1.41796875,0.1181640625-3.1044921875t0.4189453125-3.3837890625t0.90234375-3.2763671875t1.546875-2.814453125t2.3095703125-1.9658203125t3.2548828125-0.73046875q1.50390625,0,2.771484375,0.580078125t2.212890625,1.568359375t1.4716796875,2.3095703125t0.5263671875,2.7607421875q0,0.38671875-0.5263671875,0.4833984375t-0.7412109375,0.0966796875q-0.38671875,0-0.7412109375-0.064453125t-0.5263671875-0.515625q-0.30078125-0.837890625-0.6337890625-1.76171875t-0.81640625-1.6865234375t-1.1923828125-1.2568359375q-0.64453125-0.4296875-1.6328125-0.4296875l-0.171875,0q-1.8046875,0.04296875-2.685546875,1.2890625t-1.2138671875,3.029296875t-0.3330078125,3.78125l0,3.544921875q0,0.880859375,0.064453125,2.556640625t0.3115234375,3.65234375t0.64453125,4.0283203125t1.07421875,3.73828125t1.6220703125,2.75t2.27734375,1.0634765625q1.181640625,0,2.0625-0.81640625t1.5146484375-2.0947265625t1.07421875-2.857421875t0.73046875-3.1689453125t0.4404296875-2.9541015625t0.236328125-2.2451171875q-0.236328125-0.021484375-0.451171875-0.021484375q-1.009765625,0-1.9765625,0.322265625q-1.224609375,0.365234375-2.44921875,0.365234375q-0.171875,0-0.4619140625-0.021484375t-0.5478515625-0.107421875t-0.4619140625-0.2470703125t-0.2041015625-0.4189453125q0-0.494140625,1.0849609375-0.837890625t2.470703125-0.5908203125t2.6748046875-0.3544921875t1.697265625-0.107421875q0.21484375,0,0.6123046875,0.04296875t0.794921875,0.150390625t0.6767578125,0.3115234375t0.279296875,0.5048828125q0,0.2578125-0.193359375,0.4619140625t-0.4833984375,0.3115234375t-0.5908203125,0.150390625t-0.47265625,0.04296875q0.021484375,0.494140625,0.021484375,1.009765625q0,1.16015625-0.064453125,2.470703125q-0.107421875,1.890625-0.4296875,3.78125t-0.98828125,3.673828125t-1.697265625,3.1474609375t-2.5458984375,2.2021484375t-3.5986328125,0.837890625q-2.27734375,0-3.845703125-0.966796875t-2.556640625-2.578125t-1.5361328125-3.65234375t-0.7841796875-4.1787109375t-0.2900390625-4.1572265625t-0.0537109375-3.65234375z M39.97923828125,44.095703125q0-0.4296875,0.0966796875-1.138671875t0.2255859375-1.4072265625t0.30078125-1.2998046875t0.408203125-0.7734375q0.171875-0.171875,0.5908203125-0.34375t0.880859375-0.2470703125t0.859375,0.064453125t0.4833984375,0.5693359375q-0.30078125,0.38671875-0.5478515625,1.3212890625t-0.3759765625,2.0732421875q-0.107421875,0.966796875-0.107421875,1.998046875l0,0.365234375q0.021484375,1.203125,0.21484375,2.212890625t0.5908203125,1.6650390625t1.1064453125,0.6552734375q1.50390625,0,2.75-1.3857421875t2.212890625-3.3837890625t1.697265625-4.2431640625t1.24609375-3.9208984375q0.12890625-0.494140625,0.6123046875-0.666015625t1.0419921875-0.1181640625t0.9990234375,0.2685546875t0.5263671875,0.515625q-0.4296875,3.609375-0.6767578125,7.21875t-0.2470703125,7.26171875q0,0.708984375,0.064453125,1.2998046875t-0.064453125,1.009765625t-0.5693359375,0.666015625t-1.4072265625,0.2470703125q-0.21484375,0-0.5478515625-0.04296875t-0.6875-0.1396484375t-0.6015625-0.2900390625t-0.2470703125-0.451171875q0-1.58984375,0.1181640625-3.265625t0.3330078125-3.244140625q-0.580078125,0.837890625-1.2783203125,1.6650390625t-1.5361328125,1.4931640625t-1.8046875,1.0634765625t-2.083984375,0.3974609375q-1.58984375,0-2.5029296875-0.751953125t-1.375-1.8798828125t-0.580078125-2.4599609375t-0.1181640625-2.578125z M60.1889453125,45.470703125q0-1.9765625,0.4619140625-3.8779296875t0.7841796875-3.7919921875q0.0859375-0.494140625,0.6767578125-0.6123046875t0.9990234375-0.1181640625q0.708984375,0,1.138671875,0.21484375q0.171875,0.0859375,0.322265625,0.193359375t0.150390625,0.279296875q0,1.84765625-0.4404296875,3.609375t-0.4404296875,3.73828125q0,0.666015625,0.0966796875,1.2568359375t0.1826171875,1.1708984375l0.12890625,0.623046875q0,0.171875,0.021484375,0.30078125t0.064453125,0.30078125q0,0.38671875-0.5478515625,0.5263671875t-0.9560546875,0.1396484375q-0.623046875,0-1.1494140625-0.2470703125t-0.8271484375-0.8486328125l-0.30078125-0.623046875q-0.2578125-0.494140625-0.2578125-1.1064453125t-0.107421875-1.1279296875z M61.5639453125,32.537109375l0-0.408203125q0-1.009765625,0.5048828125-1.8046875t1.5146484375-0.794921875q0.12890625,0,0.2470703125,0.021484375t0.2470703125,0.021484375q0.2578125,0.04296875,0.6767578125,0.2041015625t0.4189453125,0.5048828125l0,0.04296875q-0.0859375,0.171875-0.107421875,0.3544921875t-0.107421875,0.3115234375l0.04296875-0.04296875q-0.2578125,0.666015625-0.4189453125,1.07421875t-0.3544921875,0.6552734375t-0.4833984375,0.3544921875t-0.8271484375,0.107421875q-0.0859375,0-0.30078125-0.021484375t-0.4619140625-0.0859375t-0.4189453125-0.171875t-0.171875-0.322265625z M69.57052734375,45.728515625q0-1.67578125,0.3544921875-3.0400390625t1.1279296875-2.3095703125t2.0302734375-1.4716796875t3.0615234375-0.5263671875q1.009765625,0,2.0625,0.2685546875t1.8046875,0.9990234375q0-0.4296875,0.0859375-1.7724609375t0.21484375-3.1259765625t0.2685546875-3.73828125t0.2470703125-3.630859375t0.193359375-2.814453125t0.12890625-1.2890625q0.21484375-0.623046875,0.794921875-0.7412109375t1.095703125-0.1181640625q1.353515625,0,1.6650390625,0.4296875t0.3115234375,1.71875q0,4.705078125-0.4189453125,9.3671875t-0.4189453125,9.3671875q0,3.029296875,0.1181640625,6.0908203125t0.8486328125,6.0263671875l0.236328125,0.21484375l0.12890625,0.38671875l-0.322265625,0.494140625q-0.81640625,0.515625-1.890625,0.515625l-0.0859375,0q-1.095703125,0-2.01953125-0.515625q-0.34375-0.21484375-0.5693359375-1.2783203125t-0.3544921875-2.341796875t-0.193359375-2.4599609375t-0.107421875-1.67578125q-0.751953125,1.71875-2.0517578125,2.9541015625t-3.2763671875,1.2353515625q-1.546875,0-2.53515625-0.666015625t-1.5361328125-1.697265625t-0.7734375-2.3095703125t-0.2255859375-2.5458984375z M72.17013671875,45.857421875q0,0.494140625,0.1181640625,1.4609375t0.3759765625,1.93359375t0.7197265625,1.71875t1.2138671875,0.751953125q1.009765625-0.494140625,1.826171875-1.6435546875t1.4072265625-2.53515625t0.923828125-2.771484375t0.3330078125-2.3955078125q0-1.267578125-0.923828125-2.10546875t-2.212890625-0.837890625q-0.38671875,0-0.7841796875,0.150390625t-0.7412109375,0.34375q-0.794921875,0.751953125-1.2353515625,1.3642578125t-0.666015625,1.267578125t-0.2900390625,1.4501953125t-0.064453125,1.84765625z M89.909140625,46.8671875q0-1.50390625,0.3330078125-3.544921875t1.1279296875-3.8671875t2.0947265625-3.1044921875t3.2763671875-1.2783203125q1.84765625,0,2.771484375,1.0634765625t0.923828125,2.8681640625q0,1.181640625-0.4404296875,2.5888671875t-1.2568359375,2.6640625t-1.93359375,2.0947265625t-2.4921875,0.837890625l-0.55859375-0.04296875q0,0.580078125,0.171875,1.5576171875t0.5048828125,1.9443359375t0.859375,1.697265625t1.2783203125,0.73046875q1.095703125,0,2.10546875-0.880859375t1.912109375-1.955078125t1.67578125-1.955078125t1.41796875-0.880859375q0.34375,0,0.708984375,0.107421875t0.408203125,0.6015625q0,0.30078125-0.1611328125,0.494140625t-0.2900390625,0.4296875q-0.666015625,1.138671875-1.4501953125,2.169921875t-1.7724609375,1.869140625t-2.1591796875,1.3212890625t-2.5888671875,0.4833984375q-1.84765625,0-3.072265625-0.6552734375t-1.9765625-1.76171875t-1.0849609375-2.556640625t-0.3330078125-3.0400390625z M93.75484375,45.234375l0.6015625,0.537109375q0.4296875,0.38671875,0.859375,0.171875t0.7734375-0.7841796875t0.6337890625-1.4072265625t0.515625-1.71875t0.3330078125-1.71875t0.107421875-1.396484375l0-0.73046875t-0.064453125-0.7734375t-0.2255859375-0.6123046875t-0.5048828125-0.3115234375q-0.107421875-0.021484375-0.193359375-0.021484375q-0.73046875,0-1.24609375,0.923828125q-0.55859375,1.03125-0.90234375,2.5029296875t-0.494140625,3.0185546875t-0.193359375,2.3203125z M107.86298828125,38.208984375q0-1.009765625,0.3974609375-1.4931640625t1.4501953125-0.4833984375q0.623046875,0,1.1708984375,0.2578125t0.5478515625,1.095703125q0.0859375,1.224609375,0.0859375,2.5673828125t0.236328125,2.5458984375q0.537109375-0.880859375,1.2138671875-1.76171875t1.4931640625-1.568359375t1.783203125-1.1064453125t2.10546875-0.4189453125q1.546875,0,2.62109375,0.64453125t1.7724609375,1.67578125t1.009765625,2.3310546875t0.3115234375,2.6103515625q0,2.01953125-0.6123046875,3.2978515625t-1.6220703125,2.0087890625t-2.2880859375,0.98828125t-2.5673828125,0.2578125q-1.138671875,0-2.126953125-0.4404296875t-1.375-1.6650390625q0-0.34375,0.5048828125-0.4296875t0.7197265625-0.0859375q0.708984375,0,1.052734375,0.38671875q0.2578125,0.30078125,0.5693359375,0.6123046875t0.6552734375,0.3115234375q0.666015625,0,1.396484375-0.3759765625t1.3427734375-0.98828125t1.03125-1.4501953125t0.4189453125-1.71875q0-0.751953125-0.12890625-1.869140625t-0.4404296875-2.1484375t-0.859375-1.783203125t-1.3857421875-0.751953125q-1.267578125,0-2.2880859375,1.16015625t-1.697265625,2.79296875t-1.052734375,3.39453125t-0.3759765625,2.943359375t0.150390625,2.986328125t0.3115234375,3.7490234375t0.3115234375,3.7490234375t0.150390625,2.986328125q0,0.30078125-0.2470703125,0.4833984375t-0.5908203125,0.2900390625t-0.6982421875,0.12890625t-0.5263671875,0.021484375q-0.580078125,0-1.2138671875-0.12890625t-0.8701171875-0.794921875q-0.30078125-1.052734375-0.55859375-2.9970703125t-0.4619140625-4.296875t-0.3544921875-4.94140625t-0.2578125-4.9951171875t-0.1611328125-4.404296875t-0.0537109375-3.1796875z M128.4594140625,46.8671875q0-1.50390625,0.3330078125-3.544921875t1.1279296875-3.8671875t2.0947265625-3.1044921875t3.2763671875-1.2783203125q1.84765625,0,2.771484375,1.0634765625t0.923828125,2.8681640625q0,1.181640625-0.4404296875,2.5888671875t-1.2568359375,2.6640625t-1.93359375,2.0947265625t-2.4921875,0.837890625l-0.55859375-0.04296875q0,0.580078125,0.171875,1.5576171875t0.5048828125,1.9443359375t0.859375,1.697265625t1.2783203125,0.73046875q1.095703125,0,2.10546875-0.880859375t1.912109375-1.955078125t1.67578125-1.955078125t1.41796875-0.880859375q0.34375,0,0.708984375,0.107421875t0.408203125,0.6015625q0,0.30078125-0.1611328125,0.494140625t-0.2900390625,0.4296875q-0.666015625,1.138671875-1.4501953125,2.169921875t-1.7724609375,1.869140625t-2.1591796875,1.3212890625t-2.5888671875,0.4833984375q-1.84765625,0-3.072265625-0.6552734375t-1.9765625-1.76171875t-1.0849609375-2.556640625t-0.3330078125-3.0400390625z M132.3051171875,45.234375l0.6015625,0.537109375q0.4296875,0.38671875,0.859375,0.171875t0.7734375-0.7841796875t0.6337890625-1.4072265625t0.515625-1.71875t0.3330078125-1.71875t0.107421875-1.396484375l0-0.73046875t-0.064453125-0.7734375t-0.2255859375-0.6123046875t-0.5048828125-0.3115234375q-0.107421875-0.021484375-0.193359375-0.021484375q-0.73046875,0-1.24609375,0.923828125q-0.55859375,1.03125-0.90234375,2.5029296875t-0.494140625,3.0185546875t-0.193359375,2.3203125z M146.41326171875,45.728515625q0-1.67578125,0.3544921875-3.0400390625t1.1279296875-2.3095703125t2.0302734375-1.4716796875t3.0615234375-0.5263671875q1.009765625,0,2.0625,0.2685546875t1.8046875,0.9990234375q0-0.4296875,0.0859375-1.7724609375t0.21484375-3.1259765625t0.2685546875-3.73828125t0.2470703125-3.630859375t0.193359375-2.814453125t0.12890625-1.2890625q0.21484375-0.623046875,0.794921875-0.7412109375t1.095703125-0.1181640625q1.353515625,0,1.6650390625,0.4296875t0.3115234375,1.71875q0,4.705078125-0.4189453125,9.3671875t-0.4189453125,9.3671875q0,3.029296875,0.1181640625,6.0908203125t0.8486328125,6.0263671875l0.236328125,0.21484375l0.12890625,0.38671875l-0.322265625,0.494140625q-0.81640625,0.515625-1.890625,0.515625l-0.0859375,0q-1.095703125,0-2.01953125-0.515625q-0.34375-0.21484375-0.5693359375-1.2783203125t-0.3544921875-2.341796875t-0.193359375-2.4599609375t-0.107421875-1.67578125q-0.751953125,1.71875-2.0517578125,2.9541015625t-3.2763671875,1.2353515625q-1.546875,0-2.53515625-0.666015625t-1.5361328125-1.697265625t-0.7734375-2.3095703125t-0.2255859375-2.5458984375z M149.01287109375,45.857421875q0,0.494140625,0.1181640625,1.4609375t0.3759765625,1.93359375t0.7197265625,1.71875t1.2138671875,0.751953125q1.009765625-0.494140625,1.826171875-1.6435546875t1.4072265625-2.53515625t0.923828125-2.771484375t0.3330078125-2.3955078125q0-1.267578125-0.923828125-2.10546875t-2.212890625-0.837890625q-0.38671875,0-0.7841796875,0.150390625t-0.7412109375,0.34375q-0.794921875,0.751953125-1.2353515625,1.3642578125t-0.666015625,1.267578125t-0.2900390625,1.4501953125t-0.064453125,1.84765625z M166.751875,45.470703125q0-1.9765625,0.4619140625-3.8779296875t0.7841796875-3.7919921875q0.0859375-0.494140625,0.6767578125-0.6123046875t0.9990234375-0.1181640625q0.708984375,0,1.138671875,0.21484375q0.171875,0.0859375,0.322265625,0.193359375t0.150390625,0.279296875q0,1.84765625-0.4404296875,3.609375t-0.4404296875,3.73828125q0,0.666015625,0.0966796875,1.2568359375t0.1826171875,1.1708984375l0.12890625,0.623046875q0,0.171875,0.021484375,0.30078125t0.064453125,0.30078125q0,0.38671875-0.5478515625,0.5263671875t-0.9560546875,0.1396484375q-0.623046875,0-1.1494140625-0.2470703125t-0.8271484375-0.8486328125l-0.30078125-0.623046875q-0.2578125-0.494140625-0.2578125-1.1064453125t-0.107421875-1.1279296875z M168.126875,32.537109375l0-0.408203125q0-1.009765625,0.5048828125-1.8046875t1.5146484375-0.794921875q0.12890625,0,0.2470703125,0.021484375t0.2470703125,0.021484375q0.2578125,0.04296875,0.6767578125,0.2041015625t0.4189453125,0.5048828125l0,0.04296875q-0.0859375,0.171875-0.107421875,0.3544921875t-0.107421875,0.3115234375l0.04296875-0.04296875q-0.2578125,0.666015625-0.4189453125,1.07421875t-0.3544921875,0.6552734375t-0.4833984375,0.3544921875t-0.8271484375,0.107421875q-0.0859375,0-0.30078125-0.021484375t-0.4619140625-0.0859375t-0.4189453125-0.171875t-0.171875-0.322265625z M176.13345703125,45.986328125q0-1.4609375,0.3974609375-2.814453125t1.1923828125-2.4169921875t1.9873046875-1.697265625t2.7607421875-0.6337890625q0.966796875,0,2.1376953125,0.2900390625t2.2021484375,0.859375t1.71875,1.4501953125t0.6875,2.01953125q0,0.537109375-0.1826171875,0.81640625t-0.7412109375,0.279296875l-0.236328125-0.04296875q0.623046875,1.67578125,1.07421875,3.4375t0.880859375,3.5234375q0.171875,0.34375,0.2578125,0.6123046875t0.0859375,0.5263671875q0,0.34375-0.193359375,0.5693359375t-0.5048828125,0.3330078125t-0.64453125,0.150390625t-0.5908203125,0.04296875q-0.923828125,0-1.3857421875-0.322265625t-0.666015625-0.880859375t-0.2470703125-1.2568359375t-0.171875-1.4072265625q-0.2578125,0.837890625-0.6767578125,1.6328125t-0.98828125,1.4287109375t-1.3427734375,1.009765625t-1.740234375,0.3759765625q-1.41796875,0-2.384765625-0.81640625t-1.5576171875-2.0087890625t-0.859375-2.5458984375t-0.2685546875-2.513671875z M179.18423828125,45.685546875q0,0.794921875,0.107421875,1.67578125t0.3544921875,1.740234375t0.6337890625,1.6220703125t0.966796875,1.3427734375q1.052734375-1.138671875,1.5576171875-2.771484375t0.90234375-3.1474609375t0.90234375-2.599609375t1.5576171875-1.0849609375q0.666015625,0,1.1171875,0.236328125q-0.21484375-0.537109375-0.708984375-1.0419921875t-1.1064453125-0.923828125t-1.267578125-0.6875t-1.2353515625-0.2685546875q-0.171875,0-0.3974609375,0.0537109375t-0.3544921875,0.0107421875q-0.880859375,0.2578125-1.4501953125,0.8916015625t-0.923828125,1.4931640625t-0.5048828125,1.76171875t-0.150390625,1.697265625z" />
    <path fill="#060842" d="" />
</svg>